<svg width="24" height="24" viewBox="0 0 24 24" fill="none" xmlns="http://www.w3.org/2000/svg">
<path d="M15.5 10.5C15.5 11.5384 15.1921 12.5534 14.6152 13.4167C14.0384 14.2801 13.2184 14.953 12.2591 15.3504C11.2998 15.7477 10.2442 15.8517 9.22581 15.6491C8.20741 15.4466 7.27194 14.9465 6.53772 14.2123C5.80349 13.4781 5.30348 12.5426 5.10091 11.5242C4.89833 10.5058 5.0023 9.45023 5.39966 8.49091C5.79702 7.5316 6.46993 6.71166 7.33329 6.13479C8.19664 5.55791 9.21168 5.25 10.25 5.25C11.6424 5.25 12.9778 5.80313 13.9623 6.78769C14.9469 7.77226 15.5 9.10761 15.5 10.5ZM21.2807 21.5306C21.211 21.6004 21.1283 21.6557 21.0372 21.6934C20.9462 21.7312 20.8486 21.7506 20.75 21.7506C20.6515 21.7506 20.5539 21.7312 20.4628 21.6934C20.3718 21.6557 20.2891 21.6004 20.2194 21.5306L15.5263 16.8366C13.8942 18.1944 11.8015 18.8707 9.68346 18.7249C7.56543 18.5791 5.58514 17.6224 4.15449 16.0538C2.72384 14.4852 1.95297 12.4254 2.00222 10.303C2.05148 8.1805 2.91707 6.15872 4.41895 4.65816C5.92083 3.15761 7.94337 2.29381 10.0659 2.24643C12.1884 2.19905 14.2475 2.97174 15.8148 4.40377C17.3822 5.83581 18.3371 7.81695 18.481 9.9351C18.6249 12.0533 17.9468 14.1454 16.5875 15.7763L21.2807 20.4694C21.3504 20.539 21.4057 20.6217 21.4434 20.7128C21.4812 20.8038 21.5006 20.9014 21.5006 21C21.5006 21.0986 21.4812 21.1962 21.4434 21.2872C21.4057 21.3783 21.3504 21.461 21.2807 21.5306ZM10.25 17.25C11.5851 17.25 12.8901 16.8541 14.0001 16.1124C15.1102 15.3707 15.9753 14.3165 16.4862 13.0831C16.9971 11.8497 17.1308 10.4925 16.8703 9.18314C16.6099 7.87377 15.967 6.67103 15.023 5.72703C14.079 4.78303 12.8763 4.14015 11.5669 3.8797C10.2575 3.61925 8.90032 3.75292 7.66692 4.26381C6.43351 4.77471 5.37931 5.63987 4.63761 6.7499C3.89591 7.85993 3.50003 9.16498 3.50003 10.5C3.50201 12.2896 4.21381 14.0053 5.47925 15.2708C6.74469 16.5362 8.46043 17.248 10.25 17.25Z" fill="#F87700"/>
</svg>
