<svg width="24" height="24" viewBox="0 0 24 24" fill="none" xmlns="http://www.w3.org/2000/svg">
<path d="M11.75 2.25C9.82164 2.25 7.93657 2.82183 6.33319 3.89317C4.72982 4.96451 3.48013 6.48726 2.74218 8.26884C2.00422 10.0504 1.81114 12.0108 2.18735 13.9021C2.56355 15.7934 3.49215 17.5307 4.85571 18.8943C6.21928 20.2579 7.95656 21.1865 9.84787 21.5627C11.7392 21.9389 13.6996 21.7458 15.4812 21.0078C17.2627 20.2699 18.7855 19.0202 19.8568 17.4168C20.9282 15.8134 21.5 13.9284 21.5 12C21.4968 9.41513 20.4685 6.93705 18.6407 5.10927C16.813 3.28149 14.3349 2.25323 11.75 2.25ZM15.5 12.75H12.5V15.75C12.5 15.9489 12.421 16.1397 12.2803 16.2803C12.1397 16.421 11.9489 16.5 11.75 16.5C11.5511 16.5 11.3603 16.421 11.2197 16.2803C11.079 16.1397 11 15.9489 11 15.75V12.75H8C7.80109 12.75 7.61033 12.671 7.46967 12.5303C7.32902 12.3897 7.25 12.1989 7.25 12C7.25 11.8011 7.32902 11.6103 7.46967 11.4697C7.61033 11.329 7.80109 11.25 8 11.25H11V8.25C11 8.05109 11.079 7.86032 11.2197 7.71967C11.3603 7.57902 11.5511 7.5 11.75 7.5C11.9489 7.5 12.1397 7.57902 12.2803 7.71967C12.421 7.86032 12.5 8.05109 12.5 8.25V11.25H15.5C15.6989 11.25 15.8897 11.329 16.0303 11.4697C16.171 11.6103 16.25 11.8011 16.25 12C16.25 12.1989 16.171 12.3897 16.0303 12.5303C15.8897 12.671 15.6989 12.75 15.5 12.75Z" fill="#F87700"/>
</svg>
