<svg width="24" height="24" viewBox="0 0 24 24" fill="none" xmlns="http://www.w3.org/2000/svg">
<path d="M15.3291 2.32594C15.2029 2.26448 15.0621 2.23963 14.9226 2.25422C14.783 2.2688 14.6504 2.32223 14.5397 2.40844L7.99219 7.5H3.75C3.35218 7.5 2.97064 7.65804 2.68934 7.93934C2.40804 8.22065 2.25 8.60218 2.25 9V15C2.25 15.3978 2.40804 15.7794 2.68934 16.0607C2.97064 16.342 3.35218 16.5 3.75 16.5H7.99219L14.5397 21.5916C14.6505 21.6777 14.7832 21.731 14.9228 21.7455C15.0624 21.7599 15.2033 21.7349 15.3293 21.6733C15.4554 21.6116 15.5617 21.5159 15.6361 21.3969C15.7104 21.2778 15.7499 21.1403 15.75 21V3C15.75 2.8595 15.7106 2.72181 15.6361 2.60263C15.5617 2.48346 15.4553 2.38759 15.3291 2.32594ZM14.25 19.4663L8.71031 15.1584C8.57897 15.0555 8.41686 14.9997 8.25 15H3.75V9H8.25C8.41686 9.00027 8.57897 8.94447 8.71031 8.84156L14.25 4.53375V19.4663ZM19.5 9.75V14.25C19.5 14.4489 19.421 14.6397 19.2803 14.7803C19.1397 14.921 18.9489 15 18.75 15C18.5511 15 18.3603 14.921 18.2197 14.7803C18.079 14.6397 18 14.4489 18 14.25V9.75C18 9.55109 18.079 9.36032 18.2197 9.21967C18.3603 9.07902 18.5511 9 18.75 9C18.9489 9 19.1397 9.07902 19.2803 9.21967C19.421 9.36032 19.5 9.55109 19.5 9.75Z" fill="black"/>
</svg>
