<svg width="24" height="24" viewBox="0 0 24 24" fill="none" xmlns="http://www.w3.org/2000/svg">
<path d="M16.5 3V21C16.4999 21.1403 16.4604 21.2778 16.3861 21.3969C16.3117 21.5159 16.2054 21.6116 16.0793 21.6733C15.9533 21.7349 15.8124 21.7599 15.6728 21.7455C15.5332 21.731 15.4005 21.6777 15.2897 21.5916L8.74219 16.5H4.5C4.10218 16.5 3.72064 16.342 3.43934 16.0607C3.15804 15.7794 3 15.3978 3 15V9C3 8.60218 3.15804 8.22065 3.43934 7.93934C3.72064 7.65804 4.10218 7.5 4.5 7.5H8.74219L15.2897 2.40844C15.4005 2.32231 15.5332 2.26899 15.6728 2.25455C15.8124 2.2401 15.9533 2.26512 16.0793 2.32674C16.2054 2.38837 16.3117 2.48414 16.3861 2.60315C16.4604 2.72217 16.4999 2.85966 16.5 3ZM19.5 9C19.3011 9 19.1103 9.07902 18.9697 9.21967C18.829 9.36032 18.75 9.55109 18.75 9.75V14.25C18.75 14.4489 18.829 14.6397 18.9697 14.7803C19.1103 14.921 19.3011 15 19.5 15C19.6989 15 19.8897 14.921 20.0303 14.7803C20.171 14.6397 20.25 14.4489 20.25 14.25V9.75C20.25 9.55109 20.171 9.36032 20.0303 9.21967C19.8897 9.07902 19.6989 9 19.5 9Z" fill="#F87700"/>
</svg>
