<svg width="24" height="24" viewBox="0 0 24 24" fill="none" xmlns="http://www.w3.org/2000/svg">
<path d="M11.5 5.25V9.75C11.5 10.1478 11.342 10.5294 11.0607 10.8107C10.7794 11.092 10.3978 11.25 10 11.25H5.5C5.10218 11.25 4.72064 11.092 4.43934 10.8107C4.15804 10.5294 4 10.1478 4 9.75V5.25C4 4.85218 4.15804 4.47064 4.43934 4.18934C4.72064 3.90804 5.10218 3.75 5.5 3.75H10C10.3978 3.75 10.7794 3.90804 11.0607 4.18934C11.342 4.47064 11.5 4.85218 11.5 5.25ZM19 3.75H14.5C14.1022 3.75 13.7206 3.90804 13.4393 4.18934C13.158 4.47064 13 4.85218 13 5.25V9.75C13 10.1478 13.158 10.5294 13.4393 10.8107C13.7206 11.092 14.1022 11.25 14.5 11.25H19C19.3978 11.25 19.7794 11.092 20.0607 10.8107C20.342 10.5294 20.5 10.1478 20.5 9.75V5.25C20.5 4.85218 20.342 4.47064 20.0607 4.18934C19.7794 3.90804 19.3978 3.75 19 3.75ZM10 12.75H5.5C5.10218 12.75 4.72064 12.908 4.43934 13.1893C4.15804 13.4706 4 13.8522 4 14.25V18.75C4 19.1478 4.15804 19.5294 4.43934 19.8107C4.72064 20.092 5.10218 20.25 5.5 20.25H10C10.3978 20.25 10.7794 20.092 11.0607 19.8107C11.342 19.5294 11.5 19.1478 11.5 18.75V14.25C11.5 13.8522 11.342 13.4706 11.0607 13.1893C10.7794 12.908 10.3978 12.75 10 12.75ZM19 12.75H14.5C14.1022 12.75 13.7206 12.908 13.4393 13.1893C13.158 13.4706 13 13.8522 13 14.25V18.75C13 19.1478 13.158 19.5294 13.4393 19.8107C13.7206 20.092 14.1022 20.25 14.5 20.25H19C19.3978 20.25 19.7794 20.092 20.0607 19.8107C20.342 19.5294 20.5 19.1478 20.5 18.75V14.25C20.5 13.8522 20.342 13.4706 20.0607 13.1893C19.7794 12.908 19.3978 12.75 19 12.75Z" fill="#F87700"/>
</svg>
