<svg width="42" height="42" viewBox="0 0 42 42" fill="none" xmlns="http://www.w3.org/2000/svg">
<path d="M0 17C0 7.61116 7.61116 0 17 0H25C34.3888 0 42 7.61116 42 17V25C42 34.3888 34.3888 42 25 42H17C7.61116 42 0 34.3888 0 25V17Z" fill="black"/>
<path fill-rule="evenodd" clip-rule="evenodd" d="M15 8C16.6569 8 18 9.34315 18 11V31C18 32.6569 16.6569 34 15 34C13.3431 34 12 32.6569 12 31V11C12 9.34315 13.3431 8 15 8Z" fill="white"/>
<path fill-rule="evenodd" clip-rule="evenodd" d="M27 8C28.6569 8 30 9.34315 30 11V31C30 32.6569 28.6569 34 27 34C25.3431 34 24 32.6569 24 31V11C24 9.34315 25.3431 8 27 8Z" fill="white"/>
</svg>
